<?xml version="1.0" encoding="UTF-8" standalone="no"?>
<svg
   xmlns:dc="http://purl.org/dc/elements/1.1/"
   xmlns:cc="http://creativecommons.org/ns#"
   xmlns:rdf="http://www.w3.org/1999/02/22-rdf-syntax-ns#"
   xmlns:svg="http://www.w3.org/2000/svg"
   xmlns="http://www.w3.org/2000/svg"
   xmlns:sodipodi="http://sodipodi.sourceforge.net/DTD/sodipodi-0.dtd"
   xmlns:inkscape="http://www.inkscape.org/namespaces/inkscape"
   version="1.1"
   id="svg2"
   xml:space="preserve"
   width="516"
   height="516"
   viewBox="0 0 515.99998 516"
   sodipodi:docname="logo_blog.svg"
   inkscape:version="1.0 (4035a4fb49, 2020-05-01)"
   inkscape:export-filename="/home/gabriele/Immagini/Ink/logo/favicon-16x16.png"
   inkscape:export-xdpi="2.9767442"
   inkscape:export-ydpi="2.9767442"><metadata
     id="metadata8"><rdf:RDF><cc:Work
         rdf:about=""><dc:format>image/svg+xml</dc:format><dc:type
           rdf:resource="http://purl.org/dc/dcmitype/StillImage" /><dc:title /></cc:Work></rdf:RDF></metadata><defs
     id="defs6"><clipPath
       clipPathUnits="userSpaceOnUse"
       id="clipPath18"><path
         d="M 0,595.28 H 841.89 V 0 H 0 Z"
         id="path16"
         inkscape:connector-curvature="0" /></clipPath></defs><sodipodi:namedview
     pagecolor="#ffffff"
     bordercolor="#666666"
     borderopacity="1"
     objecttolerance="10"
     gridtolerance="10"
     guidetolerance="10"
     inkscape:pageopacity="0"
     inkscape:pageshadow="2"
     inkscape:window-width="1920"
     inkscape:window-height="1049"
     id="namedview4"
     showgrid="false"
     inkscape:zoom="0.84100189"
     inkscape:cx="76.816555"
     inkscape:cy="271.13145"
     inkscape:window-x="0"
     inkscape:window-y="0"
     inkscape:window-maximized="1"
     inkscape:current-layer="g10"
     inkscape:document-rotation="0"
     inkscape:snap-page="true"
     inkscape:snap-bbox="true"
     inkscape:snap-bbox-edge-midpoints="true"
     inkscape:bbox-nodes="true" /><g
     id="g10"
     inkscape:groupmode="layer"
     inkscape:label="Logo_Gb"
     transform="matrix(1.3333333,0,0,-1.3333333,0,793.70667)"><rect
       style="fill:#ffffff;fill-opacity:1;fill-rule:evenodd;stroke-width:0.75"
       id="rect21"
       width="387"
       height="387"
       x="9.675e-06"
       y="-595.28003"
       transform="scale(1,-1)"
       ry="95.613106" /><g
       id="g12"
       transform="matrix(0.62208173,0,0,0.62756814,-70.262827,214.45122)"><g
         id="g14"
         clip-path="url(#clipPath18)"><g
           id="g20"
           transform="translate(704.9648,298.5)"><path
             d="m 0,0 h -56.693 c 0,-125.242 -101.53,-226.771 -226.772,-226.771 -125.243,0 -226.771,101.529 -226.771,226.771 0,125.243 101.528,226.771 226.771,226.771 v 56.693 c -156.553,0 -283.464,-126.911 -283.464,-283.464 0,-156.553 126.911,-283.465 283.464,-283.465 C -126.912,-283.465 0,-156.553 0,0"
             style="fill:#262959;fill-opacity:1;fill-rule:nonzero;stroke:none"
             id="path22"
             inkscape:connector-curvature="0" /></g><g
           id="g24"
           transform="translate(534.8857,241.8066)"><path
             d="m 0,0 c 0,31.312 -25.382,56.693 -56.692,56.693 -31.312,0 -56.694,-25.381 -56.694,-56.693 0,-31.311 25.382,-56.692 56.694,-56.692 C -25.382,-56.692 0,-31.311 0,0"
             style="fill:#262959;fill-opacity:1;fill-rule:nonzero;stroke:none"
             id="path26"
             inkscape:connector-curvature="0" /></g><g
           id="g28"
           transform="translate(534.8857,241.8066)"><path
             d="m 0,0 c 0,31.312 -25.382,56.693 -56.692,56.693 -31.312,0 -56.694,-25.381 -56.694,-56.693 0,-31.311 25.382,-56.692 56.694,-56.692 C -25.382,-56.692 0,-31.311 0,0 Z"
             style="fill:none;stroke:#8eafae;stroke-width:10;stroke-linecap:butt;stroke-linejoin:miter;stroke-miterlimit:10;stroke-dasharray:none;stroke-opacity:1"
             id="path30"
             inkscape:connector-curvature="0" /></g><g
           id="g32"
           transform="translate(704.9648,298.5)"><path
             d="M 0,0 H -283.465"
             style="fill:none;stroke:#8eafae;stroke-width:10;stroke-linecap:round;stroke-linejoin:round;stroke-miterlimit:10;stroke-dasharray:none;stroke-opacity:1"
             id="path34"
             inkscape:connector-curvature="0" /></g><g
           id="g36"
           transform="translate(649.6846,412.5923)"><path
             d="M 0,0 C -63.012,126.023 -216.254,177.104 -342.277,114.092 -468.3,51.081 -519.38,-102.162 -456.369,-228.185 c 63.011,-126.023 216.254,-177.104 342.277,-114.092 49.372,24.687 89.405,64.72 114.092,114.093"
             style="fill:none;stroke:#8eafae;stroke-width:5;stroke-linecap:round;stroke-linejoin:round;stroke-miterlimit:10;stroke-dasharray:none;stroke-opacity:1"
             id="path38"
             inkscape:connector-curvature="0" /></g></g></g></g></svg>
